<svg xmlns="http://www.w3.org/2000/svg" viewBox="-46.67 117.33 169.0 169.0">
<rect x="-46.67" y="117.33" width="169.0" height="169.0" fill="#f2f0eb"/>
<path d="M 143.0,343.5 L 115.0,341.5 L 92.0,335.5 L 88.0,335.5 L 61.0,327.5 L 56.0,327.5 L 37.0,323.5 L 18.0,323.5 L 3.0,326.5 L 1.5,325.0 L 1.5,322.0 L 9.0,319.5 L 25.0,318.5 L 26.0,317.5 L 42.0,318.5 L 74.0,324.5 L 111.0,334.5 L 131.0,336.5 L 132.0,337.5 L 145.0,337.5 L 146.0,336.5 L 153.0,336.5 L 163.0,334.5 L 193.0,324.5 L 206.0,321.5 L 214.0,321.5 L 215.0,320.5 L 237.0,321.5 L 289.0,331.5 L 310.0,332.5 L 311.0,331.5 L 318.0,331.5 L 334.0,328.5 L 356.0,320.5 L 371.0,317.5 L 378.0,317.5 L 379.0,316.5 L 407.0,316.5 L 476.0,329.5 L 510.0,329.5 L 511.0,328.5 L 529.0,326.5 L 561.0,315.5 L 579.0,313.5 L 580.0,312.5 L 606.0,314.5 L 640.0,322.5 L 657.0,321.5 L 676.0,316.5 L 698.0,316.5 L 718.0,320.5 L 730.0,321.5 L 736.0,323.5 L 759.0,325.5 L 760.0,326.5 L 761.5,325.0 L 765.5,303.0 L 770.5,285.0 L 768.5,281.0 L 764.5,277.0 L 765.5,276.0 L 764.5,274.0 L 757.0,266.5 L 751.5,264.0 L 754.0,263.5 L 763.5,269.0 L 759.5,262.0 L 748.5,252.0 L 752.0,252.5 L 762.5,262.0 L 756.5,252.0 L 755.5,247.0 L 753.5,244.0 L 754.0,238.5 L 758.5,249.0 L 766.5,260.0 L 768.5,261.0 L 758.5,243.0 L 752.5,224.0 L 753.0,222.5 L 754.5,224.0 L 757.5,231.0 L 765.0,241.5 L 765.5,239.0 L 760.5,226.0 L 759.0,207.5 L 766.5,225.0 L 774.5,239.0 L 775.5,239.0 L 763.5,209.0 L 762.5,191.0 L 763.5,190.0 L 764.0,181.5 L 767.5,197.0 L 776.5,212.0 L 780.5,215.0 L 774.5,206.0 L 769.5,194.0 L 769.5,187.0 L 768.5,186.0 L 769.5,169.0 L 767.5,165.0 L 767.5,159.0 L 769.0,156.5 L 769.5,166.0 L 773.5,171.0 L 775.5,179.0 L 781.0,189.5 L 781.5,188.0 L 779.5,185.0 L 779.5,182.0 L 774.5,169.0 L 774.5,156.0 L 778.5,136.0 L 779.5,136.0 L 780.5,140.0 L 780.5,150.0 L 782.5,160.0 L 790.0,178.5 L 790.5,177.0 L 786.5,167.0 L 782.5,150.0 L 783.5,148.0 L 782.5,147.0 L 782.5,135.0 L 784.5,126.0 L 790.0,114.5 L 790.5,129.0 L 794.0,145.5 L 794.5,142.0 L 792.5,133.0 L 792.5,118.0 L 795.5,104.0 L 802.0,89.5 L 802.5,100.0 L 804.5,106.0 L 805.5,116.0 L 808.5,126.0 L 810.5,128.0 L 805.5,106.0 L 805.5,91.0 L 809.5,79.0 L 815.0,69.5 L 814.5,88.0 L 815.5,88.0 L 816.5,71.0 L 818.5,65.0 L 825.5,53.0 L 839.0,38.5 L 839.5,40.0 L 835.5,51.0 L 836.0,60.5 L 840.5,43.0 L 845.5,34.0 L 852.0,27.5 L 849.5,34.0 L 850.0,35.5 L 858.5,22.0 L 873.0,9.5 L 891.0,1.5 L 898.0,1.5 L 902.5,6.0 L 904.5,10.0 L 905.5,24.0 L 902.5,31.0 L 875.5,56.0 L 896.0,41.5 L 903.0,33.5 L 902.5,41.0 L 900.5,44.0 L 899.5,51.0 L 896.5,58.0 L 881.0,76.5 L 870.0,84.5 L 850.5,96.0 L 883.0,81.5 L 892.0,74.5 L 892.5,76.0 L 883.5,93.0 L 875.5,105.0 L 867.0,112.5 L 851.5,123.0 L 863.0,117.5 L 877.0,108.5 L 883.0,102.5 L 884.5,103.0 L 875.0,112.5 L 861.0,123.5 L 828.5,146.0 L 831.0,145.5 L 842.0,137.5 L 868.0,123.5 L 872.0,119.5 L 873.5,120.0 L 861.5,145.0 L 855.5,153.0 L 847.0,160.5 L 828.5,172.0 L 851.0,163.5 L 872.0,150.5 L 873.5,151.0 L 860.0,166.5 L 829.0,181.5 L 827.0,181.5 L 814.5,189.0 L 831.0,181.5 L 852.0,174.5 L 862.0,169.5 L 862.5,171.0 L 856.5,182.0 L 844.5,194.0 L 857.5,194.0 L 804.5,228.0 L 806.0,228.5 L 820.0,222.5 L 843.0,210.5 L 848.5,210.0 L 845.0,211.5 L 841.5,215.0 L 837.5,222.0 L 830.0,229.5 L 802.5,245.0 L 819.0,240.5 L 818.0,242.5 L 803.0,249.5 L 793.5,256.0 L 803.0,251.5 L 808.0,250.5 L 820.0,250.5 L 822.0,251.5 L 835.5,243.0 L 831.5,249.0 L 826.0,253.5 L 808.0,259.5 L 789.5,269.0 L 803.0,266.5 L 807.0,264.5 L 812.5,265.0 L 794.0,270.5 L 789.5,273.0 L 803.0,274.5 L 808.0,277.5 L 809.0,279.5 L 803.0,277.5 L 791.0,278.5 L 790.0,280.5 L 795.0,280.5 L 800.5,284.0 L 799.0,284.5 L 792.0,281.5 L 787.0,281.5 L 782.5,284.0 L 789.0,284.5 L 789.0,285.5 L 785.0,285.5 L 778.5,289.0 L 774.5,304.0 L 768.5,317.0 L 767.5,322.0 L 765.5,324.0 L 766.0,326.5 L 776.0,327.5 L 775.0,329.5 L 766.0,330.5 L 761.0,333.5 L 760.0,330.5 L 744.0,330.5 L 726.0,326.5 L 696.0,323.5 L 695.0,322.5 L 678.0,322.5 L 656.0,327.5 L 643.0,328.5 L 605.0,320.5 L 580.0,318.5 L 579.0,319.5 L 572.0,319.5 L 558.0,322.5 L 529.0,332.5 L 511.0,334.5 L 510.0,335.5 L 490.0,336.5 L 489.0,335.5 L 476.0,335.5 L 475.0,334.5 L 456.0,332.5 L 438.0,328.5 L 433.0,328.5 L 418.0,324.5 L 389.0,321.5 L 388.0,322.5 L 370.0,323.5 L 365.0,325.5 L 353.0,327.5 L 334.0,334.5 L 319.0,337.5 L 313.0,337.5 L 312.0,338.5 L 295.0,338.5 L 236.0,327.5 L 216.0,326.5 L 215.0,327.5 L 208.0,327.5 L 194.0,330.5 L 164.0,340.5 L 154.0,341.5 L 153.0,342.5 L 144.0,342.5 L 143.0,343.5 Z M 840.0,38.5 L 840.0,36.5 L 840.0,38.5 Z M 835.5,65.0 L 835.0,61.5 L 834.5,65.0 L 835.5,65.0 Z M 849.5,76.0 L 851.0,72.5 L 848.5,76.0 L 849.5,76.0 Z M 818.5,92.0 L 818.0,79.5 L 817.5,92.0 L 818.5,92.0 Z M 771.5,295.0 L 786.5,236.0 L 806.5,173.0 L 828.5,118.0 L 847.0,79.5 L 826.5,120.0 L 803.5,177.0 L 778.5,257.0 L 770.5,291.0 L 770.5,295.0 L 771.5,295.0 Z M 77.0,278.5 L 69.5,268.0 L 65.0,264.5 L 57.0,259.5 L 47.0,256.5 L 38.0,258.5 L 26.5,270.0 L 26.5,266.0 L 28.5,261.0 L 34.5,251.0 L 41.0,243.5 L 48.0,238.5 L 54.0,238.5 L 55.0,237.5 L 68.0,240.5 L 80.0,246.5 L 91.0,255.5 L 94.5,251.0 L 97.5,240.0 L 97.5,232.0 L 95.5,226.0 L 91.5,220.0 L 76.0,208.5 L 60.0,199.5 L 49.5,189.0 L 44.5,178.0 L 44.5,166.0 L 50.5,154.0 L 75.0,131.5 L 80.0,125.5 L 88.0,132.5 L 104.0,139.5 L 113.0,138.5 L 121.0,130.5 L 122.5,133.0 L 121.5,136.0 L 105.5,158.0 L 100.5,168.0 L 95.0,183.5 L 94.5,176.0 L 99.5,159.0 L 98.0,157.5 L 88.0,155.5 L 76.0,149.5 L 69.0,144.5 L 65.5,148.0 L 62.5,155.0 L 62.5,162.0 L 66.5,171.0 L 77.0,180.5 L 100.0,194.5 L 109.5,203.0 L 115.5,214.0 L 116.5,224.0 L 117.5,225.0 L 115.5,235.0 L 109.5,246.0 L 100.0,255.5 L 85.0,267.5 L 77.0,278.5 Z M 317.0,270.5 L 311.5,260.0 L 305.5,254.0 L 307.5,251.0 L 308.5,154.0 L 305.5,145.0 L 301.5,141.0 L 313.0,139.5 L 328.0,125.5 L 328.5,128.0 L 324.5,140.0 L 324.5,152.0 L 323.5,153.0 L 323.5,245.0 L 324.5,249.0 L 327.0,251.5 L 331.0,252.5 L 331.5,254.0 L 321.5,264.0 L 317.0,270.5 Z M 349.0,170.5 L 343.5,166.0 L 338.5,158.0 L 338.5,156.0 L 343.5,148.0 L 350.0,143.5 L 356.5,150.0 L 359.5,157.0 L 354.5,165.0 L 349.0,170.5 Z M 551.0,269.5 L 541.5,257.0 L 536.5,253.0 L 538.5,249.0 L 538.5,189.0 L 530.0,189.5 L 529.5,188.0 L 541.5,175.0 L 555.0,152.5 L 555.5,179.0 L 569.0,179.5 L 569.5,181.0 L 563.0,188.5 L 561.0,189.5 L 556.0,188.5 L 554.5,190.0 L 554.5,242.0 L 556.5,248.0 L 560.0,251.5 L 565.0,249.5 L 566.5,251.0 L 551.0,269.5 Z M 194.0,269.5 L 179.5,252.0 L 181.5,250.0 L 181.5,189.0 L 172.5,188.0 L 184.5,175.0 L 196.5,154.0 L 198.0,153.5 L 198.5,179.0 L 211.0,179.5 L 211.5,181.0 L 205.0,188.5 L 197.5,189.0 L 197.5,244.0 L 203.0,251.5 L 206.0,251.5 L 208.0,249.5 L 209.5,251.0 L 197.5,264.0 L 194.0,269.5 Z M 231.0,268.5 L 229.5,268.0 L 222.5,258.0 L 216.5,253.0 L 218.5,249.0 L 218.5,193.0 L 219.5,189.0 L 211.0,188.5 L 210.5,187.0 L 219.5,178.0 L 235.0,153.5 L 235.5,179.0 L 249.5,180.0 L 244.0,187.5 L 235.5,189.0 L 234.5,232.0 L 235.5,245.0 L 240.0,251.5 L 242.0,251.5 L 246.0,248.5 L 246.5,251.0 L 231.0,268.5 Z M 375.0,273.5 L 375.5,266.0 L 373.5,260.0 L 371.5,256.0 L 367.5,253.0 L 370.5,248.0 L 370.5,238.0 L 371.5,237.0 L 371.5,199.0 L 364.5,192.0 L 381.0,177.5 L 386.5,184.0 L 387.5,187.0 L 387.5,192.0 L 386.5,193.0 L 388.0,193.5 L 404.0,175.5 L 418.5,189.0 L 415.5,199.0 L 415.5,246.0 L 419.0,251.5 L 424.5,251.0 L 408.0,270.5 L 403.5,260.0 L 397.5,253.0 L 399.5,246.0 L 399.5,202.0 L 398.5,201.0 L 399.5,199.0 L 395.0,193.5 L 387.5,201.0 L 387.5,223.0 L 386.5,227.0 L 387.5,228.0 L 387.5,252.0 L 389.5,254.0 L 389.5,256.0 L 379.5,266.0 L 375.0,273.5 Z M 515.0,266.5 L 511.5,264.0 L 505.0,251.5 L 489.0,265.5 L 481.5,260.0 L 475.5,249.0 L 475.5,235.0 L 477.5,230.0 L 489.0,218.5 L 500.0,212.5 L 505.5,208.0 L 505.5,198.0 L 496.0,189.5 L 494.0,189.5 L 490.5,194.0 L 487.5,203.0 L 488.5,207.0 L 492.5,210.0 L 492.0,211.5 L 490.0,212.5 L 485.0,210.5 L 479.5,204.0 L 479.5,198.0 L 483.5,191.0 L 502.0,175.5 L 505.0,176.5 L 517.0,185.5 L 524.5,189.0 L 521.5,194.0 L 521.5,246.0 L 524.0,249.5 L 527.0,249.5 L 530.0,247.5 L 530.5,250.0 L 515.0,266.5 Z M 704.0,267.5 L 692.0,258.5 L 684.5,249.0 L 680.5,233.0 L 680.5,220.0 L 681.5,219.0 L 682.5,207.0 L 687.5,195.0 L 697.0,185.5 L 710.0,175.5 L 716.5,187.0 L 725.5,199.0 L 726.5,203.0 L 698.5,227.0 L 699.5,236.0 L 702.5,243.0 L 709.0,249.5 L 712.0,250.5 L 717.0,249.5 L 720.5,247.0 L 726.0,239.5 L 728.5,240.0 L 721.5,251.0 L 704.0,267.5 Z M 144.0,266.5 L 138.0,262.5 L 128.5,253.0 L 124.5,245.0 L 121.5,230.0 L 121.5,218.0 L 122.5,217.0 L 122.5,210.0 L 125.5,201.0 L 130.5,193.0 L 149.0,176.5 L 151.0,176.5 L 156.0,179.5 L 164.5,188.0 L 168.5,195.0 L 170.5,200.0 L 171.5,211.0 L 172.5,212.0 L 172.5,226.0 L 170.5,236.0 L 166.5,246.0 L 161.0,252.5 L 144.0,266.5 Z M 272.0,266.5 L 270.0,266.5 L 264.5,262.0 L 257.5,255.0 L 253.5,248.0 L 250.5,237.0 L 250.5,212.0 L 252.5,204.0 L 258.5,193.0 L 277.0,176.5 L 279.0,176.5 L 293.5,190.0 L 297.5,198.0 L 300.5,213.0 L 300.5,226.0 L 298.5,236.0 L 294.5,245.0 L 280.0,260.5 L 272.0,266.5 Z M 449.0,267.5 L 440.0,261.5 L 433.5,255.0 L 428.5,246.0 L 426.5,236.0 L 426.5,218.0 L 427.5,217.0 L 428.5,205.0 L 433.5,194.0 L 447.0,181.5 L 455.0,176.5 L 471.5,203.0 L 443.5,227.0 L 444.5,236.0 L 447.5,243.0 L 456.0,250.5 L 461.0,249.5 L 470.0,239.5 L 471.5,240.0 L 463.5,253.0 L 449.0,267.5 Z M 349.0,269.5 L 347.5,269.0 L 344.5,262.0 L 336.5,255.0 L 339.5,249.0 L 339.5,197.0 L 338.5,194.0 L 335.0,192.5 L 334.5,191.0 L 350.0,177.5 L 351.5,181.0 L 357.5,187.0 L 355.5,193.0 L 355.5,248.0 L 358.0,252.5 L 361.0,253.5 L 362.0,252.5 L 362.5,254.0 L 352.5,264.0 L 349.0,269.5 Z M 614.0,267.5 L 608.5,260.0 L 605.0,250.5 L 590.0,266.5 L 574.5,253.0 L 575.5,251.0 L 575.5,195.0 L 573.0,191.5 L 569.5,190.0 L 584.0,177.5 L 588.5,181.0 L 592.5,187.0 L 591.5,239.0 L 593.5,246.0 L 598.0,250.5 L 605.5,244.0 L 605.5,195.0 L 601.5,189.0 L 607.0,186.5 L 616.0,177.5 L 619.5,180.0 L 623.5,186.0 L 622.5,191.0 L 622.5,247.0 L 626.0,251.5 L 630.5,252.0 L 627.0,256.5 L 614.0,267.5 Z M 649.0,269.5 L 647.5,269.0 L 641.5,258.0 L 635.5,254.0 L 638.5,249.0 L 638.5,197.0 L 636.0,193.5 L 632.0,193.5 L 631.5,192.0 L 638.0,187.5 L 648.0,177.5 L 654.5,185.0 L 655.5,188.0 L 655.0,195.5 L 660.5,187.0 L 670.0,177.5 L 678.5,188.0 L 680.5,193.0 L 673.5,204.0 L 669.0,208.5 L 665.5,202.0 L 661.0,197.5 L 655.5,204.0 L 655.5,236.0 L 654.5,237.0 L 655.5,238.0 L 655.5,247.0 L 658.0,251.5 L 662.5,253.0 L 650.5,266.0 L 649.0,269.5 Z M 151.5,253.0 L 153.5,249.0 L 154.5,238.0 L 155.5,237.0 L 154.5,212.0 L 150.5,198.0 L 143.0,189.5 L 140.5,193.0 L 140.5,201.0 L 139.5,202.0 L 139.5,229.0 L 143.5,245.0 L 151.5,253.0 Z M 278.5,253.0 L 280.5,251.0 L 282.5,241.0 L 282.5,227.0 L 283.5,226.0 L 282.5,224.0 L 282.5,212.0 L 280.5,202.0 L 278.5,198.0 L 271.0,189.5 L 268.5,193.0 L 268.5,201.0 L 267.5,202.0 L 267.5,231.0 L 270.5,244.0 L 272.5,248.0 L 278.5,253.0 Z M 444.5,222.0 L 454.5,212.0 L 447.5,192.0 L 446.0,190.5 L 443.5,197.0 L 443.5,205.0 L 442.5,206.0 L 442.5,222.0 L 444.5,222.0 Z M 698.5,222.0 L 709.5,211.0 L 705.5,199.0 L 701.0,190.5 L 697.5,207.0 L 697.5,222.0 L 698.5,222.0 Z M 808.5,216.0 L 842.5,199.0 L 841.0,198.5 L 827.0,204.5 L 806.5,216.0 L 808.5,216.0 Z M 94.0,236.5 L 88.5,228.0 L 83.0,223.5 L 58.0,213.5 L 48.0,228.5 L 47.5,227.0 L 51.5,221.0 L 54.5,213.0 L 50.0,209.5 L 44.5,208.0 L 49.0,204.5 L 54.0,204.5 L 75.0,213.5 L 85.0,220.5 L 92.5,229.0 L 94.5,234.0 L 94.0,236.5 Z M 500.5,249.0 L 504.5,245.0 L 505.0,214.5 L 495.5,222.0 L 492.5,229.0 L 493.5,244.0 L 498.0,249.5 L 500.5,249.0 Z M 821.0,240.5 L 819.5,240.0 L 821.0,238.5 L 824.5,238.0 L 821.0,240.5 Z" fill="#161513" fill-rule="evenodd"/>
</svg>
